<?xml version="1.0" standalone="no"?>
<!DOCTYPE svg PUBLIC "-//W3C//DTD SVG 20010904//EN"
 "http://www.w3.org/TR/2001/REC-SVG-20010904/DTD/svg10.dtd">
<svg version="1.0" xmlns="http://www.w3.org/2000/svg"
 width="318.000000pt" height="158.000000pt" viewBox="0 0 318.000000 158.000000"
 preserveAspectRatio="xMidYMid meet">

<g transform="translate(0.000000,158.000000) scale(0.100000,-0.100000)"
fill="#000000" stroke="none">
<path d="M1422 1302 c-160 -267 -189 -303 -223 -281 -26 16 -69 10 -93 -14
l-24 -24 -11 38 c-6 21 -15 40 -20 43 -4 3 -4 31 1 63 19 123 -29 213 -115
213 -76 0 -224 -131 -330 -292 l-52 -79 -275 7 c-151 3 -273 4 -270 1 3 -2
118 -46 255 -97 166 -62 255 -99 265 -113 8 -11 34 -40 58 -64 23 -24 36 -43
29 -43 -22 0 -47 -34 -47 -64 0 -16 14 -45 34 -69 18 -23 43 -61 55 -84 27
-55 50 -60 140 -33 40 12 74 20 76 18 2 -2 -46 -82 -108 -178 -62 -96 -122
-191 -135 -211 l-22 -36 490 189 489 190 458 -177 c252 -98 473 -183 491 -191
24 -10 31 -10 25 -1 -4 7 -38 60 -75 120 -84 131 -86 137 -59 137 66 0 166 81
202 163 28 66 31 184 5 271 -10 32 -14 62 -9 66 4 3 127 50 273 104 146 54
267 100 270 103 3 2 -131 1 -298 -3 -297 -7 -302 -7 -302 13 0 36 -41 63 -98
63 -41 0 -54 -4 -68 -23 l-17 -23 -23 23 c-27 27 -75 30 -99 7 -15 -15 -19
-15 -53 0 -44 19 -164 19 -204 -1 -24 -11 -32 -11 -66 7 -34 18 -58 52 -193
275 -85 140 -157 255 -160 255 -3 0 -78 -121 -167 -268z m291 -34 l116 -193
-31 -9 c-16 -5 -42 -22 -57 -36 l-26 -27 -33 25 c-65 49 -174 41 -226 -17
l-19 -21 -23 21 c-17 15 -32 20 -57 17 l-33 -4 130 218 c72 120 134 218 137
218 3 0 58 -87 122 -192z m-735 -28 c17 -32 10 -113 -17 -201 -31 -99 -109
-179 -175 -179 -29 0 -66 42 -66 75 0 42 32 115 69 157 l38 42 7 -36 c5 -29 1
-48 -20 -89 -22 -41 -25 -56 -18 -78 14 -39 46 -38 81 2 54 62 95 276 59 306
-44 36 -205 -123 -267 -264 -26 -59 -23 -142 8 -183 69 -93 203 -49 273 90 16
34 30 71 30 82 0 12 4 28 10 36 8 13 9 13 13 0 3 -8 21 -69 41 -135 73 -241
40 -303 -199 -370 l-116 -33 -14 29 c-9 16 -29 45 -47 64 -17 20 -29 37 -27
39 2 2 49 18 104 36 203 66 265 115 265 208 0 21 -6 46 -13 56 -11 16 -14 13
-30 -22 -20 -47 -75 -106 -120 -129 -109 -56 -231 -20 -251 74 -15 66 60 204
178 331 113 121 174 148 204 92z m915 -254 c39 -16 82 -61 96 -99 15 -39 14
-111 -3 -150 -24 -56 -50 -72 -123 -72 -62 0 -66 2 -99 37 -31 35 -34 43 -34
100 0 101 56 198 113 198 9 0 32 -6 50 -14z m-258 -18 c105 -82 51 -299 -80
-324 -105 -19 -149 64 -106 203 37 124 116 176 186 121z m854 13 c12 -8 40
-115 87 -337 15 -69 16 -89 6 -136 -32 -142 -165 -216 -346 -194 l-57 8 31 34
c17 20 32 51 36 75 5 27 11 38 20 35 7 -3 40 -11 73 -17 72 -15 124 -3 166 38
38 38 45 63 44 146 l-1 72 -12 -60 c-14 -71 -29 -101 -57 -115 -55 -30 -91 32
-114 197 -18 125 -31 177 -52 209 -14 23 -10 49 7 39 5 -3 21 -42 36 -88 39
-118 60 -155 91 -163 21 -6 31 -2 50 20 33 38 30 95 -7 174 -17 35 -30 66 -30
68 0 7 14 4 29 -5z m-405 -98 c9 -36 24 -79 32 -95 17 -33 57 -52 91 -43 25 6
53 52 53 86 0 37 -38 105 -66 118 -31 14 -39 9 -26 -16 6 -11 6 -27 1 -42 l-9
-24 -26 24 c-18 17 -24 32 -22 54 3 26 8 30 34 33 89 9 173 -165 145 -299 -14
-62 -44 -99 -81 -99 -60 0 -87 44 -125 205 -14 59 -32 120 -41 137 -8 16 -13
37 -9 46 6 16 8 15 20 -1 7 -10 20 -47 29 -84z m-914 48 c0 -9 6 -25 13 -36
14 -17 15 -17 34 2 10 10 27 30 37 44 l17 24 16 -22 c19 -29 31 -29 60 -1 21
19 23 20 23 3 0 -27 -37 -80 -65 -93 -20 -9 -32 -8 -60 5 -50 24 -63 9 -47
-53 20 -75 39 -96 81 -92 20 3 43 8 51 12 13 5 15 -4 16 -54 1 -59 0 -60 -32
-70 -72 -24 -97 6 -124 148 -20 105 -29 130 -54 151 -14 11 -14 15 0 37 17 26
34 24 34 -5z m-630 12 c0 -5 -6 -28 -13 -53 l-12 -46 -140 53 -140 52 153 1
c83 0 152 -3 152 -7z m2242 -55 c-89 -33 -165 -58 -169 -55 -3 3 -11 31 -18
62 l-13 55 181 -1 182 0 -163 -61z m-673 -340 c16 -13 43 -31 60 -40 44 -24
43 -67 -4 -119 -43 -48 -44 -72 -6 -110 24 -24 37 -29 73 -28 24 1 57 4 73 8
28 7 32 3 77 -63 25 -39 45 -72 44 -74 -2 -1 -190 70 -419 158 l-416 161 -416
-160 c-229 -89 -418 -161 -420 -161 -2 0 44 75 102 166 96 149 111 168 153
189 51 26 130 107 130 134 0 10 7 4 19 -14 27 -45 54 -65 95 -72 51 -8 122 14
150 47 21 25 25 26 47 14 56 -31 166 -10 221 43 l27 25 29 -21 c45 -31 80 -42
143 -42 62 -1 101 15 138 55 l25 26 23 -49 c13 -28 37 -60 52 -73z m221 2 c0
-5 -4 -10 -10 -10 -5 0 -10 5 -10 10 0 6 5 10 10 10 6 0 10 -4 10 -10z"/>
<path d="M1844 969 c-3 -6 6 -23 21 -39 30 -31 26 -50 -9 -50 -29 0 -56 29
-57 61 -1 22 -2 21 -15 -9 -21 -48 -4 -106 39 -133 63 -39 157 -1 157 64 0 56
-112 144 -136 106z"/>
<path d="M1573 963 c-19 -7 -16 -27 7 -48 28 -25 26 -53 -5 -61 -40 -10 -58
12 -52 63 2 24 3 43 1 43 -13 0 -34 -67 -34 -107 1 -54 14 -77 55 -93 34 -13
88 11 118 52 44 60 -26 177 -90 151z"/>
</g>
</svg>
