<svg xmlns="http://www.w3.org/2000/svg" xmlns:xlink="http://www.w3.org/1999/xlink" viewBox="0 0 47 66" fill="#fff" fill-rule="evenodd" stroke="#000" stroke-linecap="round" stroke-linejoin="round"><use xlink:href="#A" x=".5" y=".5"/><symbol id="A" overflow="visible"><g stroke="none" fill-rule="nonzero"><path d="M21.867 62.117a21.86 21.86 0 0 1-15.463-6.406A21.88 21.88 0 0 1 0 40.248C0 29.854 8.146 19.883 13.72 12.6c3.012-3.9 5.664-8.083 7.925-12.47.04-.086.132-.14.227-.14s.185.054.227.14a81.78 81.78 0 0 0 7.925 12.472c5.57 7.273 13.72 17.236 13.72 27.638H30.397c-.283 0-.514.23-.514.514v7.5h-7.498c-.283 0-.514.23-.514.514V62.12zm8.568-5.308v-7.132h-6.63a.51.51 0 0 0-.363.151.52.52 0 0 0-.151.363v6.627zm-7.163 7.114a21.3 21.3 0 0 0 7.142-1.375V58.95h-6.63a.51.51 0 0 0-.363.151.52.52 0 0 0-.151.363zm15.154-15.128v-7.142H31.8c-.283 0-.514.23-.514.514v6.627h7.142zm.857 8.875l.008-.008a1.49 1.49 0 0 0 .428-1.06V50.96h-7.142V58.1h5.643a1.5 1.5 0 0 0 1.062-.43zm-6.223 6.333c1.9-.82 3.688-1.913 5.28-3.248h-5.28zm11.123-15.208a21.8 21.8 0 0 0 1.395-7.142H40.6v7.142zm-1.817 7.93a21.29 21.29 0 0 0 3.244-5.28h-3.244z" fill="#728e9b"/><path d="M17.055 10.59l-1.208 1.7-3.95 5.22q.797.108 1.558.24l3.28-5.55.877-1.58c.23-.412-.307-.373-.558-.02zm-5.215 9.907l.592-1.02-1.8-.32c-1.873 2.508-3.584 5.133-5.12 7.86C2.76 32 .853 37.572 1.73 43.323c.746 4.78 3.162 9.142 6.82 12.3.797.672 1.604 1.283 2.475 1.83.114.07.263.044.345-.06s.072-.26-.024-.35a21.92 21.92 0 0 1-5.914-9.975c-1.634-6.038-.28-12.223 2.052-17.884a77.57 77.57 0 0 1 4.334-8.7z" fill="#b9c6cd"/></g></symbol></svg>